# xmcd CD database file
#
# Track frame offsets:
#	150
#	21370
#	42440
#
# Disc length: 861 seconds
#
# Revision: 9
# Processed by: cddbd v1.5.1PL0 Copyright (c) Steve Scherf et al.
# Submitted via: CDex 1.51
#
DISCID=20035b03
DTITLE=Hitoto You - Morai Naki
DYEAR=2002
DGENRE=JPop
TTITLE0=morai naki
TTITLE1=hisui
TTITLE2=arigatou
EXTD=YEAR: 2002
EXTT0=
EXTT1=
EXTT2=
PLAYORDER=
